<svg id="Layer_1" data-name="Layer 1" xmlns="http://www.w3.org/2000/svg" viewBox="0 0 95.35 48.75"><defs><style>.cls-1{fill:#2f2482;}.cls-1,.cls-6{fill-rule:evenodd;}.cls-2{fill:#00953f;}.cls-3,.cls-6{fill:#009de2;}.cls-4{font-size:4.34px;fill:#1a1a18;}.cls-4,.cls-5{font-family:Swiss721BT-Roman, Swis721 BT;}.cls-5{font-size:4.2px;fill:#9b9b9b;}</style></defs><title>logo</title><path class="cls-1" d="M27.47,29.16a2.95,2.95,0,1,0-2.08,5,2.95,2.95,0,0,0,2.08-5m16.59-3a1.72,1.72,0,0,1,3.44,0v5.25a6.23,6.23,0,0,1-12.46,0V26.16a1.72,1.72,0,1,1,3.44,0v5.25a2.8,2.8,0,0,0,2.79,2.79,2.8,2.8,0,0,0,2.79-2.79Zm14.32,3a2.95,2.95,0,0,0-4.17,4.17,2.93,2.93,0,0,0,4.17,0,3,3,0,0,0,0-4.17Zm-2.09-4.3A6.33,6.33,0,0,1,60.2,26.2v0a1.73,1.73,0,0,1,3.46,0v9.74a1.73,1.73,0,0,1-3.42.35,6.4,6.4,0,0,1-4,1.36,6.39,6.39,0,0,1,0-12.77Zm9.78,1.32a1.72,1.72,0,0,1,1.73-1.72,1.74,1.74,0,0,1,1.62,1.12,7.09,7.09,0,0,1,3.82-1.11h0a1.72,1.72,0,1,1,0,3.43,3.7,3.7,0,0,0-3.71,3.68v4.34a1.73,1.73,0,0,1-3.46,0Zm25.63,3a3,3,0,0,0-5,2.09,3,3,0,1,0,5-2.09Zm-2.09-4.3a6.35,6.35,0,0,1,3.91,1.34v0a1.73,1.73,0,0,1,3.46,0v9.74a1.74,1.74,0,0,1-3.43.35,6.38,6.38,0,1,1-3.94-11.41ZM77.36,26.18a1.73,1.73,0,0,1,3.46,0v9.74a1.73,1.73,0,0,1-3.46,0ZM11.12,21.32a.3.3,0,0,0,0,.08M11,29.25l-1.35-3-1.34,3ZM8.05,21.44l0,0h0s0,0,0-.08h0l0,0v0h0l0,0h0l0,0v0h0l0,0h0v0l0,0h0l0,0h0l0,0h0l0,0h0l0,0h0v0h0l0,0h0l0,0h0l0,0h0l0,0h0l0,0h0l0,0h0l0,0h.11l0,0h0l0,0h0l0,0H9l0,0H9a1.65,1.65,0,0,1,.48-.1h.24a1.65,1.65,0,0,1,.48.1h0l0,0h0l0,0h0l0,0h.05l0,0h.11l0,0h0l0,0h0l0,0h0l0,0h0l0,0h0l0,0h0l0,0h0l0,0h0l0,0h0l0,0h0l0,0h0v0h0l0,0v0l0,0h0v0h0l0,0v0h0l0,0h0l0,0v0h0a.3.3,0,0,0,0,.08h0l0,0,6.26,13.77a1.7,1.7,0,0,1-.84,2.27,1.73,1.73,0,0,1-2.28-.85L12.53,32.7H6.7L4.9,36.63a1.71,1.71,0,0,1-3.12-1.42ZM29.2,26.13a1.73,1.73,0,0,1,3.45,0V42.8a1.73,1.73,0,0,1-3.45,0V36.37a6.39,6.39,0,1,1,0-10.24Z" transform="translate(-1.63 -1.24)"/><path class="cls-2" d="M20.72,13.56a.89.89,0,1,1-1.18-1.33s9.12-8.29,18-.1C52.15,25.65,59.38,18.46,66.83,11,71.52,6.37,76.29,1.63,83,1.25A.89.89,0,0,1,83.08,3c-6,.34-10.54,4.85-15,9.27-8.07,8-15.89,15.82-31.77,1.14-7.67-7.08-15.57.1-15.6.12" transform="translate(-1.63 -1.24)"/><path class="cls-3" d="M22.82,18.33a.89.89,0,1,1-1.41-1.09s4.91-6.55,13.6-1.72c9.39,5.23,12.52,2.75,17-.84C57.61,10.26,65.12,4.3,86.49,7.19a.9.9,0,0,1,.76,1,.89.89,0,0,1-1,.76c-20.62-2.8-27.78,2.89-33.09,7.11-5.07,4-8.58,6.82-19,1-7.33-4.07-11.3,1.24-11.32,1.25" transform="translate(-1.63 -1.24)"/><path class="cls-2" d="M69.64,10.77a.9.9,0,0,1-1.26,0,.89.89,0,0,1,0-1.26c1-1,2-2,3.11-2.89a32,32,0,0,1,3.33-2.52.89.89,0,1,1,1,1.49A28,28,0,0,0,72.66,8c-1,.88-2,1.83-3,2.8" transform="translate(-1.63 -1.24)"/><text class="cls-4" transform="translate(34.33 43.19)">AD</text><text class="cls-4" transform="translate(40.13 43.19)">VISORY SERVICES PVT L</text><text class="cls-4" transform="translate(89.79 43.19)">TD</text><text class="cls-5" transform="translate(18.34 47.76)">W</text><text class="cls-5" transform="translate(22.42 47.76)">e </text><text class="cls-5" transform="translate(26.25 47.76)">M</text><text class="cls-5" transform="translate(30.12 47.76)">a</text><text class="cls-5" transform="translate(32.78 47.76)">k</text><text class="cls-5" transform="translate(35.33 47.76)">e </text><text class="cls-5" transform="translate(39.16 47.76)">F</text><text class="cls-5" transform="translate(41.98 47.76)">i</text><text class="cls-5" transform="translate(43.29 47.76)">n</text><text class="cls-5" transform="translate(46.06 47.76)">a</text><text class="cls-5" transform="translate(48.72 47.76)">n</text><text class="cls-5" transform="translate(51.49 47.76)">c</text><text class="cls-5" transform="translate(54.07 47.76)">e </text><text class="cls-5" transform="translate(57.9 47.76)">S</text><text class="cls-5" transform="translate(60.99 47.76)">i</text><text class="cls-5" transform="translate(62.3 47.76)">m</text><text class="cls-5" transform="translate(66.29 47.76)">p</text><text class="cls-5" transform="translate(69.16 47.76)">l</text><text class="cls-5" transform="translate(70.49 47.76)">e</text><text class="cls-5" transform="translate(73.16 47.76)">.</text><text class="cls-5" transform="translate(74.69 47.76)">.</text><text class="cls-5" transform="translate(76.22 47.76)">.</text><path class="cls-6" d="M79.09,18.92a1.9,1.9,0,1,1-1.9,1.9,1.9,1.9,0,0,1,1.9-1.9" transform="translate(-1.63 -1.24)"/></svg>